<svg xmlns="http://www.w3.org/2000/svg" width="40.725" height="35.111" viewBox="0 0 40.725 35.111">
  <g id="back" transform="matrix(-1, -0.017, 0.017, -1, 39.568, 66.948)">
    <g id="Group_191" data-name="Group 191" transform="translate(0 31.842)">
      <path id="Path_248" data-name="Path 248" d="M37.718,46.233a2.868,2.868,0,0,0-.5-.037H8.91l.617-.287a5.742,5.742,0,0,0,1.622-1.149l7.939-7.939a2.972,2.972,0,0,0,.416-3.8,2.871,2.871,0,0,0-4.307-.373L.842,47a2.871,2.871,0,0,0,0,4.061l0,0L15.2,65.42a2.871,2.871,0,0,0,4.307-.287,2.972,2.972,0,0,0-.416-3.8l-7.925-7.954a5.743,5.743,0,0,0-1.436-1.048l-.861-.388h28.2a2.972,2.972,0,0,0,3.029-2.412A2.871,2.871,0,0,0,37.718,46.233Z" transform="translate(0 -31.842)" fill="#707070"/>
    </g>
  </g>
</svg>
