<svg id="clipboard" xmlns="http://www.w3.org/2000/svg" width="61.76" height="61.76" viewBox="0 0 61.76 61.76">
  <path id="Path_373" data-name="Path 373" d="M39.887,57.04H6.433A6.441,6.441,0,0,1,0,50.607V9.433A6.441,6.441,0,0,1,6.433,3H11.58a1.287,1.287,0,0,1,0,2.573H6.433a3.865,3.865,0,0,0-3.86,3.86V50.607a3.865,3.865,0,0,0,3.86,3.86H39.887a3.865,3.865,0,0,0,3.86-3.86V9.433a3.865,3.865,0,0,0-3.86-3.86H34.74A1.287,1.287,0,1,1,34.74,3h5.147A6.441,6.441,0,0,1,46.32,9.433V50.607A6.441,6.441,0,0,1,39.887,57.04Z" transform="translate(0 4.72)" fill="#26c6da"/>
  <path id="Path_374" data-name="Path 374" d="M25.873,15.44H7.86A3.865,3.865,0,0,1,4,11.58V6.433A1.287,1.287,0,0,1,5.287,5.147h5.275a6.435,6.435,0,0,1,12.609,0h5.275a1.287,1.287,0,0,1,1.287,1.287V11.58A3.865,3.865,0,0,1,25.873,15.44ZM6.573,7.72v3.86A1.289,1.289,0,0,0,7.86,12.867H25.873A1.289,1.289,0,0,0,27.16,11.58V7.72H22.013a1.287,1.287,0,0,1-1.287-1.287,3.86,3.86,0,0,0-7.72,0A1.287,1.287,0,0,1,11.72,7.72Z" transform="translate(6.293)" fill="#26c6da"/>
  <path id="Path_375" data-name="Path 375" d="M25.147,44.6A1.289,1.289,0,0,1,24,43.89l-3.317-6.634A6.461,6.461,0,0,1,20,34.379V11.147a5.147,5.147,0,0,1,10.293,0V34.379a6.461,6.461,0,0,1-.679,2.877L26.3,43.89a1.289,1.289,0,0,1-1.15.71Zm0-36.027a2.576,2.576,0,0,0-2.573,2.573V34.379a3.905,3.905,0,0,0,.407,1.727l2.167,4.331,2.167-4.331a3.905,3.905,0,0,0,.407-1.727V11.147A2.576,2.576,0,0,0,25.147,8.573Zm3.317,28.106h.026Z" transform="translate(31.467 9.44)" fill="#26c6da"/>
  <path id="Path_376" data-name="Path 376" d="M32.593,11.573H4.287A1.287,1.287,0,1,1,4.287,9H32.593a1.287,1.287,0,1,1,0,2.573Z" transform="translate(4.72 14.16)" fill="#26c6da"/>
  <path id="Path_377" data-name="Path 377" d="M32.593,14.573H4.287a1.287,1.287,0,1,1,0-2.573H32.593a1.287,1.287,0,1,1,0,2.573Z" transform="translate(4.72 18.88)" fill="#26c6da"/>
  <path id="Path_378" data-name="Path 378" d="M32.593,17.573H4.287a1.287,1.287,0,0,1,0-2.573H32.593a1.287,1.287,0,0,1,0,2.573Z" transform="translate(4.72 23.6)" fill="#26c6da"/>
  <path id="Path_379" data-name="Path 379" d="M32.593,20.573H4.287a1.287,1.287,0,1,1,0-2.573H32.593a1.287,1.287,0,1,1,0,2.573Z" transform="translate(4.72 28.32)" fill="#26c6da"/>
</svg>
