<svg xmlns="http://www.w3.org/2000/svg" width="184.978" height="189.791" viewBox="0 0 184.978 189.791">
  <g id="note" transform="translate(-36 -27.375)">
    <path id="Path_479" data-name="Path 479" d="M450.552,277.829a10.594,10.594,0,0,0-14.675-3.034l-.887.58,11.636,17.713.887-.58a10.59,10.59,0,0,0,3.038-14.679Z" transform="translate(-231.318 -142.433)" fill="#26c6da"/>
    <path id="Path_480" data-name="Path 480" d="M162,58H48.54A12.417,12.417,0,0,0,36,70.451V222.158a12.686,12.686,0,0,0,12.54,12.763H162a12.8,12.8,0,0,0,12.674-12.763V70.451A12.535,12.535,0,0,0,162,58ZM64.614,82.705a6.98,6.98,0,1,1,6.98-6.98,6.98,6.98,0,0,1-6.98,6.98Zm26.273,0a6.98,6.98,0,1,1,6.98-6.98,6.98,6.98,0,0,1-6.98,6.98Zm26.278,0a6.976,6.976,0,1,1,4.937-2.043A6.98,6.98,0,0,1,117.165,82.705Zm26.273,0a6.98,6.98,0,1,1,6.98-6.98,6.98,6.98,0,0,1-6.98,6.98Z" transform="translate(0 -17.754)" fill="#cae6ee"/>
    <path id="Path_481" data-name="Path 481" d="M88.071,162.9A14.593,14.593,0,1,1,73.48,177.493,14.593,14.593,0,0,1,88.071,162.9Z" transform="translate(-21.729 -78.572)" fill="#26c6da"/>
    <path id="Path_482" data-name="Path 482" d="M88.071,262.9A14.593,14.593,0,1,1,73.48,277.493,14.593,14.593,0,0,1,88.071,262.9Z" transform="translate(-21.729 -136.548)" fill="#26c6da"/>
    <path id="Path_483" data-name="Path 483" d="M88.071,362.9A14.593,14.593,0,1,1,73.48,377.493,14.593,14.593,0,0,1,88.071,362.9Z" transform="translate(-21.729 -194.524)" fill="#26c6da"/>
    <path id="Path_484" data-name="Path 484" d="M48.607,222.158V70.451A12.417,12.417,0,0,1,61.147,58H48.54A12.417,12.417,0,0,0,36,70.451V222.158a12.686,12.686,0,0,0,12.54,12.763H61.147A12.686,12.686,0,0,1,48.607,222.158Z" transform="translate(0 -17.754)" fill="#aac8ce"/>
    <g id="Group_288" data-name="Group 288" transform="translate(62.093 27.375)">
      <path id="Path_485" data-name="Path 485" d="M100.611,53.453a2.521,2.521,0,0,1-2.521-2.521V29.9a2.521,2.521,0,1,1,5.043,0V50.932a2.521,2.521,0,0,1-2.521,2.521Z" transform="translate(-98.09 -27.375)" fill="#6d7486"/>
      <path id="Path_486" data-name="Path 486" d="M100.611,53.453a2.521,2.521,0,0,1-2.521-2.521V29.9a2.521,2.521,0,1,1,5.043,0V50.932a2.521,2.521,0,0,1-2.521,2.521Z" transform="translate(-98.09 -27.375)" fill="#6d7486"/>
      <path id="Path_487" data-name="Path 487" d="M163.134,53.453a2.521,2.521,0,0,1-2.521-2.521V29.9a2.521,2.521,0,1,1,5.043,0V50.932a2.521,2.521,0,0,1-2.521,2.521Z" transform="translate(-134.338 -27.375)" fill="#6d7486"/>
      <path id="Path_488" data-name="Path 488" d="M225.659,53.453a2.521,2.521,0,0,1-2.521-2.521V29.9a2.521,2.521,0,0,1,5.043,0V50.932a2.521,2.521,0,0,1-2.521,2.521Z" transform="translate(-170.588 -27.375)" fill="#6d7486"/>
      <path id="Path_489" data-name="Path 489" d="M288.182,53.453a2.521,2.521,0,0,1-2.521-2.521V29.9a2.521,2.521,0,0,1,5.043,0V50.932a2.521,2.521,0,0,1-2.521,2.521Z" transform="translate(-206.836 -27.375)" fill="#6d7486"/>
    </g>
    <path id="Path_490" data-name="Path 490" d="M237.758,184.668H174.721a2.521,2.521,0,1,1,0-5.043h63.036a2.521,2.521,0,0,1,0,5.043Z" transform="translate(-78.963 -88.268)" fill="#8fb1b5"/>
    <path id="Path_491" data-name="Path 491" d="M95.171,195.328a2.513,2.513,0,0,1-1.783-.738l-4.015-4.016a2.521,2.521,0,1,1,3.565-3.566l2.272,2.272,5.6-5.356a2.521,2.521,0,1,1,3.485,3.645l-7.384,7.06A2.514,2.514,0,0,1,95.171,195.328Z" transform="translate(-30.515 -90.356)" fill="#249fae"/>
    <path id="Path_492" data-name="Path 492" d="M237.758,284.668H174.721a2.521,2.521,0,1,1,0-5.043h63.036a2.521,2.521,0,0,1,0,5.043Z" transform="translate(-78.963 -146.244)" fill="#8fb1b5"/>
    <path id="Path_493" data-name="Path 493" d="M95.171,295.328a2.514,2.514,0,0,1-1.783-.738l-4.015-4.016a2.521,2.521,0,1,1,3.565-3.566l2.272,2.272,5.6-5.356a2.521,2.521,0,1,1,3.485,3.645l-7.384,7.06A2.514,2.514,0,0,1,95.171,295.328Z" transform="translate(-30.515 -148.332)" fill="#249fae"/>
    <path id="Path_494" data-name="Path 494" d="M214.686,384.668H174.721a2.521,2.521,0,0,1,0-5.043h39.965a2.521,2.521,0,1,1,0,5.043Z" transform="translate(-78.963 -204.22)" fill="#8fb1b5"/>
    <path id="Path_495" data-name="Path 495" d="M95.171,395.328a2.514,2.514,0,0,1-1.783-.738l-4.015-4.016a2.521,2.521,0,1,1,3.565-3.566l2.272,2.272,5.6-5.356a2.521,2.521,0,0,1,3.485,3.645l-7.384,7.06A2.514,2.514,0,0,1,95.171,395.328Z" transform="translate(-30.515 -206.308)" fill="#249fae"/>
    <path id="Path_496" data-name="Path 496" d="M208.341,204.668H174.721a2.521,2.521,0,1,1,0-5.043h33.619a2.521,2.521,0,1,1,0,5.043Z" transform="translate(-78.963 -99.863)" fill="#8fb1b5"/>
    <path id="Path_497" data-name="Path 497" d="M208.341,304.668H174.721a2.521,2.521,0,1,1,0-5.043h33.619a2.521,2.521,0,1,1,0,5.043Z" transform="translate(-78.963 -157.839)" fill="#8fb1b5"/>
    <path id="Path_498" data-name="Path 498" d="M208.341,404.668H174.721a2.521,2.521,0,1,1,0-5.043h33.619a2.521,2.521,0,1,1,0,5.043Z" transform="translate(-78.963 -215.815)" fill="#8fb1b5"/>
    <path id="Path_499" data-name="Path 499" d="M55.821,101.782A2.521,2.521,0,0,1,53.3,99.261V96.613a2.521,2.521,0,1,1,5.043,0v2.648A2.521,2.521,0,0,1,55.821,101.782Z" transform="translate(-10.03 -38.68)" fill="#f4f8fc"/>
    <path id="Path_500" data-name="Path 500" d="M55.821,148.809a2.521,2.521,0,0,1-2.521-2.521V121.913a2.521,2.521,0,1,1,5.043,0v24.374A2.521,2.521,0,0,1,55.821,148.809Z" transform="translate(-10.03 -53.348)" fill="#f4f8fc"/>
    <path id="Path_501" data-name="Path 501" d="M355.389,299.66,287.65,344.142,293.47,353,361.2,308.514Z" transform="translate(-145.896 -157.86)" fill="#e75163"/>
    <path id="Path_502" data-name="Path 502" d="M0,0H81.038V10.6H0Z" transform="matrix(0.836, -0.549, 0.549, 0.836, 135.96, 177.429)" fill="#fb6771"/>
    <path id="Path_503" data-name="Path 503" d="M260.46,384.43l-.269.5-9.4,17.768,21.31-.559Z" transform="translate(-124.527 -207.006)" fill="#c79a83"/>
  </g>
</svg>
