<svg xmlns="http://www.w3.org/2000/svg" width="66.439" height="59.983" viewBox="0 0 66.439 59.983">
  <g id="policy" transform="translate(0.001)">
    <path id="Path_364" data-name="Path 364" d="M59.432,0H16.47A6.736,6.736,0,0,0,9.708,6.687l-.277,37.83H1.047A1.091,1.091,0,0,0,0,45.636v5.206a9.122,9.122,0,0,0,8.607,9.078v.063H44.785v-.07c.269.011.432.07.617.07h.026a9.094,9.094,0,0,0,9.041-9.142V17.753H65.39a1.1,1.1,0,0,0,1.048-1.132V7.069A7.057,7.057,0,0,0,59.432,0ZM9.078,57.831H9.07a6.972,6.972,0,0,1-6.919-6.99V46.669H36.312v4.155a9.106,9.106,0,0,0,2.658,6.462,3.864,3.864,0,0,1,.566.546ZM52.317,50.84a6.948,6.948,0,0,1-6.891,6.991H45.4a6.991,6.991,0,0,1-6.94-7.007V45.636a1.114,1.114,0,0,0-1.076-1.12h-25.8L11.86,6.694a4.583,4.583,0,0,1,4.61-4.542H54.352A7.342,7.342,0,0,0,52.317,7.1ZM64.286,7.088V15.6H54.468V7.1A4.983,4.983,0,0,1,59.4,2.152h.03A4.9,4.9,0,0,1,64.286,7.08Zm0,0" fill="#26c6da"/>
    <path id="Path_365" data-name="Path 365" d="M166.339,72.852l5.547,3.793a1.059,1.059,0,0,0,1.2,0l5.53-3.792a8.356,8.356,0,0,0,3.34-6.375V58.805a1.052,1.052,0,0,0-.574-.966l-8.446-4.155a1.057,1.057,0,0,0-.94,0l-8.43,4.143a1.05,1.05,0,0,0-.573.966v7.685a8.357,8.357,0,0,0,3.343,6.374Zm-1.191-13.387,7.33-3.617,7.33,3.627v7a6.2,6.2,0,0,1-2.4,4.6l-4.94,3.379-4.92-3.378a6.2,6.2,0,0,1-2.4-4.6Zm0,0" transform="translate(-141.075 -46.369)" fill="#26c6da"/>
    <path id="Path_366" data-name="Path 366" d="M204.02,122.246a1.074,1.074,0,0,0,.762.323h0a1.077,1.077,0,0,0,.761-.318l4.28-4.282a1.076,1.076,0,0,0-1.521-1.523l-3.516,3.515-1.405-1.419a1.077,1.077,0,0,0-1.529,1.516Zm0,0" transform="translate(-174.436 -100.511)" fill="#26c6da"/>
    <path id="Path_367" data-name="Path 367" d="M159.9,248H134.076a1.076,1.076,0,0,0,0,2.152H159.9a1.076,1.076,0,1,0,0-2.152Zm0,0" transform="translate(-115.113 -214.646)" fill="#26c6da"/>
    <path id="Path_368" data-name="Path 368" d="M159.9,285H134.076a1.076,1.076,0,0,0,0,2.152H159.9a1.076,1.076,0,1,0,0-2.152Zm0,0" transform="translate(-115.113 -246.67)" fill="#26c6da"/>
  </g>
</svg>
