<svg xmlns="http://www.w3.org/2000/svg" width="48.366" height="61" viewBox="0 0 48.366 61">
  <path id="Path_246" data-name="Path 246" d="M101.357,50.3,98.633,15.977a4.29,4.29,0,0,0-4.258-3.944H88.995v-.242a11.791,11.791,0,0,0-23.582,0v.242H60.031a4.289,4.289,0,0,0-4.258,3.939L53.049,50.308A9.933,9.933,0,0,0,62.952,61h28.5a9.933,9.933,0,0,0,9.9-10.7ZM68.985,11.791a8.218,8.218,0,0,1,16.436,0v.242H68.985Zm27.135,43.6a6.294,6.294,0,0,1-4.666,2.038h-28.5a6.359,6.359,0,0,1-6.341-6.841L59.336,16.25a.7.7,0,0,1,.7-.644h5.381v4.4a1.787,1.787,0,1,0,3.573,0v-4.4H85.422v4.4a1.787,1.787,0,0,0,3.573,0v-4.4h5.381a.7.7,0,0,1,.7.649L97.8,50.581A6.294,6.294,0,0,1,96.12,55.389Z" transform="translate(-53.02)" fill="#707070"/>
</svg>
