<svg xmlns="http://www.w3.org/2000/svg" width="49.75" height="56.042" viewBox="0 0 49.75 56.042">
  <g id="support_3_" data-name="support (3)" transform="translate(-22.465)">
    <g id="Group_196" data-name="Group 196" transform="translate(22.465)">
      <g id="Group_195" data-name="Group 195" transform="translate(0)">
        <path id="Path_295" data-name="Path 295" d="M25.977,194.873c-1.829,0-3.512,1.024-3.512,2.78V206.8a3.585,3.585,0,0,0,3.512,3.439h4.536V194.873H25.977Z" transform="translate(-22.465 -167.584)" fill="#26c6da"/>
        <path id="Path_296" data-name="Path 296" d="M184.629,333.322a4.683,4.683,0,0,0,.073,9.365,4.9,4.9,0,0,0,3.439-1.39,4.316,4.316,0,0,0,1.171-3.219A4.756,4.756,0,0,0,184.629,333.322Z" transform="translate(-157.925 -286.645)" fill="#26c6da"/>
        <path id="Path_297" data-name="Path 297" d="M329.291,194.873h-3.8v15.364h3.8c.8,0,3.512-.293,3.512-2.707v-9.145A3.8,3.8,0,0,0,329.291,194.873Z" transform="translate(-283.053 -167.584)" fill="#26c6da"/>
        <path id="Path_298" data-name="Path 298" d="M92.589,20.485v5.341h2.195V20.485a20.485,20.485,0,1,0-40.97,0v5.341h2.195V20.485a18.29,18.29,0,0,1,36.581,0Z" transform="translate(-49.423)" fill="#26c6da"/>
        <path id="Path_299" data-name="Path 299" d="M265.334,309.311a12.218,12.218,0,0,1-10.755,4.755l-.146,2.122h1.317a14.047,14.047,0,0,0,11.34-5.634l1.9-2.634-1.756-1.244Z" transform="translate(-221.949 -263.731)" fill="#26c6da"/>
      </g>
    </g>
  </g>
</svg>
