<svg xmlns="http://www.w3.org/2000/svg" width="53.388" height="58.291" viewBox="0 0 53.388 58.291">
  <g id="support" transform="translate(-17.756)">
    <g id="Group_186" data-name="Group 186" transform="translate(17.756)">
      <path id="Path_245" data-name="Path 245" d="M65.517,24.1h-.144V20.561a20.561,20.561,0,0,0-41.121,0V24.1h-.866a5.875,5.875,0,0,0-5.627,6.06v9.018a5.7,5.7,0,0,0,5.553,5.842h5.413a1.371,1.371,0,0,0,1.3-1.434c0-.027,0-.054-.006-.081V25.827c0-.866-.5-1.731-1.3-1.731H27.137V20.561a17.675,17.675,0,0,1,35.35,0V24.1H60.9c-.794,0-1.3.866-1.3,1.731V43.5a1.371,1.371,0,0,0,1.217,1.509l.081.006h1.659l-.144.216a11.4,11.4,0,0,1-9.162,4.545,7.142,7.142,0,0,0-14.14,1.371,7.214,7.214,0,0,0,7.214,7.142,7.431,7.431,0,0,0,5.194-2.236,6.349,6.349,0,0,0,1.731-3.463,14.284,14.284,0,0,0,11.471-5.7l1.371-2.02c3.1-.216,5.05-2.164,5.05-4.978V30.877C71.144,27.775,68.836,24.1,65.517,24.1ZM27.137,42.131H23.385a2.814,2.814,0,0,1-2.744-2.881c0-.026,0-.051,0-.077V30.156a2.991,2.991,0,0,1,2.741-3.174h3.751Zm22.292,11.9a4.257,4.257,0,0,1-3.1,1.371A4.4,4.4,0,0,1,42,51.149a4.256,4.256,0,0,1,8.513,0v0A3.824,3.824,0,0,1,49.429,54.035ZM68.258,39.9c0,1.948-1.876,2.236-2.741,2.236h-3.03V26.981h3.03c1.587,0,2.741,2.236,2.741,3.9Z" transform="translate(-17.756)" fill="#707070"/>
    </g>
  </g>
</svg>
