<svg xmlns="http://www.w3.org/2000/svg" width="61.416" height="58.848" viewBox="0 0 61.416 58.848">
  <path id="user_7_" data-name="user (7)" d="M52.422,8.618A31.2,31.2,0,0,0,30.708,0,31.2,31.2,0,0,0,8.994,8.618a28.562,28.562,0,0,0,0,41.612,31.2,31.2,0,0,0,21.714,8.618A31.2,31.2,0,0,0,52.422,50.23a28.562,28.562,0,0,0,0-41.612ZM15.394,50.847A15.334,15.334,0,0,1,30.708,38.535,15.333,15.333,0,0,1,46.021,50.847a28.028,28.028,0,0,1-30.627,0Zm5.549-25.116a9.577,9.577,0,0,1,9.764-9.356,9.577,9.577,0,0,1,9.764,9.356,9.577,9.577,0,0,1-9.764,9.356,9.577,9.577,0,0,1-9.764-9.356ZM49.138,48.455a18.23,18.23,0,0,0-5.588-8.629,19.261,19.261,0,0,0-5.561-3.364,12.681,12.681,0,0,0,6.082-10.731c0-7.06-5.995-12.8-13.363-12.8s-13.363,5.744-13.363,12.8a12.681,12.681,0,0,0,6.082,10.731,19.266,19.266,0,0,0-5.561,3.364,18.234,18.234,0,0,0-5.588,8.629A25.428,25.428,0,0,1,3.6,29.424C3.6,15.1,15.76,3.448,30.708,3.448S57.817,15.1,57.817,29.424a25.428,25.428,0,0,1-8.679,19.031Zm0,0" transform="translate(0.001)" fill="#616161"/>
</svg>
