<svg xmlns="http://www.w3.org/2000/svg" width="61.417" height="61.417" viewBox="0 0 61.417 61.417">
  <g id="user_8_" data-name="user (8)" transform="translate(0.001)">
    <path id="Path_353" data-name="Path 353" d="M141.9,335.266a15.571,15.571,0,0,0-15.553,15.553c0,.5.024.987.07,1.471a30.786,30.786,0,0,0,30.965,0c.046-.484.07-.975.07-1.471A15.571,15.571,0,0,0,141.9,335.266Zm0,0" transform="translate(-111.189 -295.049)" fill="#26c6da"/>
    <path id="Path_354" data-name="Path 354" d="M52.422,8.994A30.708,30.708,0,0,0,8.994,52.423a31.127,31.127,0,0,0,2.591,2.315A19.189,19.189,0,0,1,23.43,38.056a13.363,13.363,0,1,1,14.555,0A19.189,19.189,0,0,1,49.831,54.738a31.212,31.212,0,0,0,2.591-2.315,30.709,30.709,0,0,0,0-43.428Zm0,0" transform="translate(0 0)" fill="#26c6da"/>
    <path id="Path_355" data-name="Path 355" d="M194.129,152.233A9.764,9.764,0,1,0,184.365,162,9.775,9.775,0,0,0,194.129,152.233Zm0,0" transform="translate(-153.658 -125.379)" fill="#26c6da"/>
  </g>
</svg>
