<svg xmlns="http://www.w3.org/2000/svg" width="169.592" height="169.984" viewBox="0 0 169.592 169.984">
  <g id="customer-service" transform="translate(-0.572)">
    <path id="Path_280" data-name="Path 280" d="M151.428,140.092V120.9a32.9,32.9,0,0,1,32.9-32.9h0a32.9,32.9,0,0,1,32.9,32.9v19.192Z" transform="translate(-99.156 -57.842)" fill="#d3a06c"/>
    <path id="Path_281" data-name="Path 281" d="M242.17,88c-.927,0-1.834.063-2.742.137A32.888,32.888,0,0,1,269.586,120.9v19.192h5.483V120.9A32.9,32.9,0,0,0,242.17,88Z" transform="translate(-156.998 -57.842)" fill="#b27946"/>
    <path id="Path_282" data-name="Path 282" d="M147.07,366.158h60.317l-5.146-15.436a16.452,16.452,0,0,0-12.664-10.983L169,336H147.07l-20.576,3.74a16.452,16.452,0,0,0-12.664,10.983l-2.4,10.915v4.521Z" transform="translate(-72.865 -220.85)" fill="#26c6da"/>
    <g id="Group_194" data-name="Group 194" transform="translate(52.272 60.317)">
      <path id="Path_283" data-name="Path 283" d="M215.428,312v8.225l10.967,10.967,10.967-10.967V312Z" transform="translate(-193.495 -265.392)" fill="#f9e0a6"/>
      <path id="Path_284" data-name="Path 284" d="M311.428,216h2.742a8.225,8.225,0,0,1,8.225,8.225h0a8.225,8.225,0,0,1-8.225,8.225h-2.742Z" transform="translate(-256.595 -202.292)" fill="#f9e0a6"/>
      <path id="Path_285" data-name="Path 285" d="M162.395,216h-2.742a8.224,8.224,0,0,0-8.225,8.225h0a8.225,8.225,0,0,0,8.225,8.225h2.742Z" transform="translate(-151.428 -202.292)" fill="#f9e0a6"/>
      <path id="Path_286" data-name="Path 286" d="M175.428,186.967v16.45A24.674,24.674,0,0,0,200.1,228.092h0a24.673,24.673,0,0,0,24.675-24.675v-16.45h0a33.1,33.1,0,0,1-23.4-9.695L200.1,176l-1.272,1.272a33.1,33.1,0,0,1-23.4,9.695Z" transform="translate(-167.203 -176)" fill="#fec9a3"/>
    </g>
    <path id="Path_287" data-name="Path 287" d="M261.361,223.509a24.672,24.672,0,0,1-21.933,24.513,24.6,24.6,0,0,0,27.417-24.513v-16.45a33.2,33.2,0,0,1-5.483-.491Z" transform="translate(-156.998 -135.775)" fill="#eabd8c"/>
    <path id="Path_288" data-name="Path 288" d="M348.911,8h38.383a5.482,5.482,0,0,1,5.483,5.483V35.417a5.482,5.482,0,0,1-5.483,5.483H379.07L357.136,54.608l2.35-13.708H348.911a5.482,5.482,0,0,1-5.483-5.483V13.483A5.482,5.482,0,0,1,348.911,8Z" transform="translate(-225.356 -5.258)" fill="#ececec"/>
    <path id="Path_289" data-name="Path 289" d="M305.932,366.158h11.88l-5.146-15.436A16.452,16.452,0,0,0,300,339.74L279.428,336l19.726,10.958a10.966,10.966,0,0,1,5.574,8.376Z" transform="translate(-183.29 -220.85)" fill="#1a8390"/>
    <path id="Path_290" data-name="Path 290" d="M68.5,311.747l-9.832,8.891a5.482,5.482,0,0,1-7.753,0L31.247,300.975a5.482,5.482,0,0,1,0-7.754l8.891-8.891-16.45-16.45-10.3,10.3a16.45,16.45,0,0,0,0,23.263L50.441,338.5a16.45,16.45,0,0,0,23.263,0l11.241-10.3Z" transform="translate(-5.257 -176.075)" fill="#f44336"/>
    <path id="Path_291" data-name="Path 291" d="M131.983,181.59a19.192,19.192,0,0,0-14.775-12.812l-18.323-3.334v-1.42a27.592,27.592,0,0,0,8.173-7.257h5.535a8.235,8.235,0,0,0,8.225-8.225v-32.9a35.642,35.642,0,1,0-71.283,0v19.192a10.985,10.985,0,0,0,8.743,10.739,27.468,27.468,0,0,0,13.19,18.451v1.42l-18.325,3.334A19.188,19.188,0,0,0,38.371,181.59l-1.1,3.293-9.338-9.338a2.747,2.747,0,0,1,0-3.879l10.83-10.827L18.439,140.511,6.2,152.75a19.192,19.192,0,0,0,0,27.14l37.054,37.054a19.182,19.182,0,0,0,27.055.082L83.664,204.79,79.5,200.634H138.33Zm-46.806-6.766L76.952,166.6v-.129a27.395,27.395,0,0,0,16.45,0v.129Zm27.417-23.54h-2.306a27.233,27.233,0,0,0,1.788-5.711,10.861,10.861,0,0,0,3.26-1.3v4.266A2.744,2.744,0,0,1,112.594,151.283Zm0-21.171a5.436,5.436,0,0,1,0,9.442Zm-57.575,4.721a5.465,5.465,0,0,1,2.742-4.721v9.442A5.465,5.465,0,0,1,55.019,134.833Zm2.742-13.708v3.131a10.875,10.875,0,0,0-2.742,1.135v-9.749a30.158,30.158,0,1,1,60.317,0v9.749a10.775,10.775,0,0,0-2.742-1.135v-3.131h-2.742a30.165,30.165,0,0,1-21.465-8.891l-3.21-3.211-3.21,3.211A30.165,30.165,0,0,1,60.5,121.125Zm5.483,19.192V126.5a35.546,35.546,0,0,0,21.933-9.744A35.531,35.531,0,0,0,107.11,126.5v13.813a21.768,21.768,0,0,1-2.966,10.967H85.177v5.483h14.46a21.9,21.9,0,0,1-36.393-16.45ZM31.01,160.838l-2.977,2.977L15.459,151.242l2.977-2.977Zm25.81,56.245a13.633,13.633,0,0,1-9.695-4.017L10.072,176.016a13.711,13.711,0,0,1,0-19.386l1.508-1.508L24.153,167.7l-.1.1a8.239,8.239,0,0,0,0,11.633l19.661,19.661a8.182,8.182,0,0,0,5.818,2.41,8.072,8.072,0,0,0,5.716-2.314l.206-.184L68.085,211.63l-1.574,1.442A13.639,13.639,0,0,1,56.82,217.084Zm15.312-9.165-12.6-12.6,3.622-3.274,12.582,12.582Zm1.884-12.768L63.337,184.471,51.471,195.205a2.8,2.8,0,0,1-3.877,0l-5.988-5.988,1.963-5.895a13.713,13.713,0,0,1,10.553-9.154l19.164-3.482,11.891,11.891,11.888-11.888,19.162,3.482a13.708,13.708,0,0,1,10.553,9.154l3.945,11.825Z" transform="translate(-0.005 -52.583)"/>
    <path id="Path_292" data-name="Path 292" d="M382.036,0H343.653a8.235,8.235,0,0,0-8.225,8.225V30.158a8.235,8.235,0,0,0,8.225,8.225h7.323l-2.835,16.535L374.6,38.383h7.438a8.235,8.235,0,0,0,8.225-8.225V8.225A8.235,8.235,0,0,0,382.036,0Zm2.742,30.158a2.746,2.746,0,0,1-2.742,2.742h-9.012L355.612,43.782,357.479,32.9H343.653a2.746,2.746,0,0,1-2.742-2.742V8.225a2.746,2.746,0,0,1,2.742-2.742h38.383a2.746,2.746,0,0,1,2.742,2.742Z" transform="translate(-220.098)"/>
    <rect id="Rectangle_30" data-name="Rectangle 30" width="32.9" height="5.483" transform="translate(126.297 10.967)"/>
    <rect id="Rectangle_31" data-name="Rectangle 31" width="21.933" height="5.483" transform="translate(126.297 21.933)"/>
    <rect id="Rectangle_32" data-name="Rectangle 32" width="5.483" height="5.483" transform="translate(153.714 21.933)"/>
    <path id="Path_293" data-name="Path 293" d="M26.267,83.925l-2.821-4.7-7.43,4.458a71.3,71.3,0,0,1,90.278-51.017l1.623-5.237A76.77,76.77,0,0,0,10.469,83.343l-5.2-8.661L.572,77.5l9.637,16.058Z" transform="translate(0 -15.775)"/>
    <path id="Path_294" data-name="Path 294" d="M411.619,165.077l4.7,2.821,4.8-8a71.344,71.344,0,0,1-12.083,67.919l4.258,3.454a76.777,76.777,0,0,0,13.138-72.753l8.058,4.834,2.821-4.7-16.058-9.637Z" transform="translate(-268.48 -97.947)"/>
  </g>
</svg>
