<svg xmlns="http://www.w3.org/2000/svg" width="150.997" height="151" viewBox="0 0 150.997 151">
  <g id="dental_2_" data-name="dental (2)" transform="translate(-1 -1)">
    <path id="Path_430" data-name="Path 430" d="M89.194,36.1A33.987,33.987,0,0,1,78.477,60.866a14.656,14.656,0,0,0-8.646,5.943,33.949,33.949,0,0,1-39.114-6.892,16.9,16.9,0,0,0-8.281-14.077v-.024A33.741,33.741,0,0,1,21,36.1a34.1,34.1,0,1,1,68.194,0Z" transform="translate(28.71 1.435)" fill="#ffeaa7"/>
    <path id="Path_431" data-name="Path 431" d="M144.525,40a7.336,7.336,0,0,1,2.606,10.01l-18,30.59a29.362,29.362,0,0,1-25.207,14.418H9.306a7.306,7.306,0,0,1,0-14.613h94.862a14.652,14.652,0,0,0,12.348-7.209l9.4-15.977,8.6-14.613A7.334,7.334,0,0,1,144.525,40Z" transform="translate(1.435 54.548)" fill="#dfb28b"/>
    <path id="Path_432" data-name="Path 432" d="M6,81.71V62.226a29.226,29.226,0,0,1,58.452,0v7.306l-8.816-5.894a23.011,23.011,0,0,0-26.547.755L15.742,74.4H13.306A7.317,7.317,0,0,0,6,81.71Z" transform="translate(7.177 45.935)" fill="#fcd770"/>
    <path id="Path_433" data-name="Path 433" d="M74.194,50H74.8l.609,2.557a6.088,6.088,0,0,0,1.218,12.056H13.306a7.306,7.306,0,0,1,0-14.613H74.194Z" transform="translate(7.177 70.339)" fill="#838f9b"/>
    <path id="Path_434" data-name="Path 434" d="M58.71,53.742l7.306,4.871H10L23.346,48.6a23.011,23.011,0,0,1,26.547-.755Z" transform="translate(12.919 61.726)" fill="#838f9b"/>
    <path id="Path_435" data-name="Path 435" d="M36.762,67.226,51.18,45.6a17.039,17.039,0,0,1,14.2-7.6,17.214,17.214,0,0,1,9.45,2.85A17.192,17.192,0,0,1,82.184,58l-.1.633.049.024-9.4,15.977a14.652,14.652,0,0,1-12.348,7.209h-21.8a6.089,6.089,0,0,1-1.218-12.056Z" transform="translate(45.218 53.113)" fill="#b4dd7f"/>
    <path id="Path_436" data-name="Path 436" d="M45.072,35.513a3.947,3.947,0,0,1,.024.536A17.048,17.048,0,1,1,28.048,19a16.818,16.818,0,0,1,8.743,2.411v.024A16.9,16.9,0,0,1,45.072,35.513Z" transform="translate(14.355 25.839)" fill="#f0d0b4"/>
    <path id="Path_437" data-name="Path 437" d="M54.613,26a14.719,14.719,0,1,1-3.41.414A14.363,14.363,0,0,1,54.613,26Z" transform="translate(55.984 35.887)" fill="#f0d0b4"/>
    <path id="Path_438" data-name="Path 438" d="M73.71,21.785a13.791,13.791,0,0,1-4.043,9.742L68.6,32.6a32.911,32.911,0,0,0-9.011,16.854,2.983,2.983,0,0,1-5.845,0l-1.461-7.4a2.983,2.983,0,0,0-5.845,0l-1.461,7.4a2.983,2.983,0,0,1-5.845,0A32.911,32.911,0,0,0,30.115,32.6l-1.072-1.072A13.777,13.777,0,0,1,38.785,8h.828L41.05,9.437a11.76,11.76,0,0,0,16.61,0L59.1,8h.828A13.8,13.8,0,0,1,73.71,21.785Z" transform="translate(34.452 10.048)" fill="#e6e9ed"/>
    <path id="Path_439" data-name="Path 439" d="M29.833,35.761a30.46,30.46,0,0,1,8.351,15.607,5.406,5.406,0,0,0,10.6,0l1.478-7.4a.558.558,0,0,1,1.052,0l1.478,7.4a5.407,5.407,0,0,0,10.6,0A30.452,30.452,0,0,1,71.75,35.758l1.081-1.081A16.212,16.212,0,0,0,61.368,7H59.524L57.383,9.141a9.325,9.325,0,0,1-13.186,0L42.057,7H40.213A16.212,16.212,0,0,0,28.749,34.677ZM40.04,11.871l.714.711a14.191,14.191,0,0,0,20.073,0l.714-.714a11.343,11.343,0,0,1,7.847,19.362l-1.081,1.081a35.314,35.314,0,0,0-9.683,18.091.558.558,0,0,1-1.052,0L56.092,43a5.407,5.407,0,0,0-10.6,0l-1.478,7.4a.557.557,0,0,1-1.052,0,35.268,35.268,0,0,0-9.683-18.091l-1.081-1.086a11.341,11.341,0,0,1,7.847-19.36Z" transform="translate(33.016 8.613)"/>
    <path id="Path_440" data-name="Path 440" d="M147.195,92.457a9.741,9.741,0,0,0-13.334,3.458l-4.4,7.482a19.34,19.34,0,0,0-8.069-11.454,19.049,19.049,0,0,0-1.775-1,17.018,17.018,0,0,0-6.785-31.325,36.042,36.042,0,0,0,7.509-22.083,36.532,36.532,0,1,0-72.612,5.628,19.461,19.461,0,0,0-15.77,35.146,31.69,31.69,0,0,0-21.215,29.854v19.484a9.642,9.642,0,0,0,1.354,4.871H10.742a9.742,9.742,0,1,0,0,19.484h94.626a31.788,31.788,0,0,0,27.292-15.609l18-30.6a9.754,9.754,0,0,0-3.466-13.329ZM124.92,105.3a14.736,14.736,0,0,1,.058,5.49l-.039.295-9.077,15.431a12.218,12.218,0,0,1-10.495,6H83.806a3.653,3.653,0,1,1,0-7.306H102.28a8.571,8.571,0,0,0,7.309-4.138l5.531-9.221-4.177-2.506-5.531,9.221a3.672,3.672,0,0,1-3.132,1.773H84.912l13.522-20.285A14.614,14.614,0,0,1,124.92,105.3Zm-63.554-39a35.868,35.868,0,0,0,32.67,6.232,16.9,16.9,0,0,0,7.5,18.383,19.415,19.415,0,0,0-7.153,6.442L80.682,117.9H79.673l-5.609-3.738v-6A31.69,31.69,0,0,0,52.849,78.307,19.526,19.526,0,0,0,61.366,66.3ZM70.891,117.9H30.223l7.513-5.633a20.54,20.54,0,0,1,23.717-.66Zm51.883-41.4A12.177,12.177,0,1,1,110.6,64.323,12.191,12.191,0,0,1,122.774,76.5ZM52.145,37.532a31.661,31.661,0,0,1,63.323,0,31.339,31.339,0,0,1-9.554,22.589,17.077,17.077,0,0,0-8.9,6.125,31.336,31.336,0,0,1-35.2-6.013,19.491,19.491,0,0,0-8.553-14.523,31.527,31.527,0,0,1-1.106-8.178ZM27.79,61.887A14.613,14.613,0,1,1,42.4,76.5,14.628,14.628,0,0,1,27.79,61.887ZM42.4,81.371a26.822,26.822,0,0,1,26.79,26.79v2.757l-5.039-3.361a25.41,25.41,0,0,0-29.338.813L22.108,117.9H20.484a9.642,9.642,0,0,0-4.871,1.354v-11.1A26.822,26.822,0,0,1,42.4,81.371Zm-26.79,46.274a4.876,4.876,0,0,1,4.871-4.871H77.859a8.394,8.394,0,0,0-1.722,9.742H20.472a4.878,4.878,0,0,1-4.859-4.871ZM146.459,103.32l-18,30.6a26.9,26.9,0,0,1-23.091,13.208H10.742a4.871,4.871,0,1,1,0-9.742h94.869v-.017a17.114,17.114,0,0,0,14.455-8.388l18-30.595a5,5,0,0,1,6.671-1.729A4.877,4.877,0,0,1,146.459,103.32Z" transform="translate(0 0)"/>
  </g>
</svg>
