<svg xmlns="http://www.w3.org/2000/svg" width="21.362" height="35.492" viewBox="0 0 21.362 35.492">
  <g id="down-arrow" transform="matrix(0.017, 1, -1, 0.017, 121.432, -1.757)">
    <g id="Group_192" data-name="Group 192" transform="translate(0 100.698)">
      <path id="Path_249" data-name="Path 249" d="M34.573,102.432l-1.151-1.159a1.926,1.926,0,0,0-2.719,0L17.575,114.4,4.432,101.259a1.927,1.927,0,0,0-2.718,0L.562,102.411a1.924,1.924,0,0,0,0,2.718l15.649,15.705a1.964,1.964,0,0,0,1.363.616h.006a1.964,1.964,0,0,0,1.359-.616l15.634-15.663a1.941,1.941,0,0,0,.562-1.373A1.922,1.922,0,0,0,34.573,102.432Z" transform="translate(0 -100.698)" fill="#707070"/>
    </g>
  </g>
</svg>
