<svg xmlns="http://www.w3.org/2000/svg" width="209.29" height="191.729" viewBox="0 0 209.29 191.729">
  <g id="email_2_" data-name="email (2)" transform="translate(0 -21.482)">
    <path id="Path_472" data-name="Path 472" d="M289.6,304.8l-26.16-26.2a4.36,4.36,0,0,0-7.447,3.078v61.084a4.36,4.36,0,0,0,2.982,4.133,4.3,4.3,0,0,0,1.378.227,4.36,4.36,0,0,0,3.488-1.744L290,310.495A4.36,4.36,0,0,0,289.6,304.8Z" transform="translate(-151.356 -151.261)" fill="#63eafa"/>
    <path id="Path_473" data-name="Path 473" d="M245.22,307.7l-26.16-8.72a4.36,4.36,0,0,0-5.52,5.511l17.44,52.32a4.36,4.36,0,0,0,4.142,2.982h.27a4.36,4.36,0,0,0,4-3.488l8.72-43.6A4.36,4.36,0,0,0,245.22,307.7Z" transform="translate(-126.122 -163.937)" fill="#249fae"/>
    <path id="Path_474" data-name="Path 474" d="M257.861,22.308a4.36,4.36,0,0,0-4.683-.2L87.5,118.028a4.36,4.36,0,0,0,.811,7.909l78.306,26.108,60.866,26.09a4.36,4.36,0,0,0,6.008-3.252l26.16-148.241A4.36,4.36,0,0,0,257.861,22.308Z" transform="translate(-50.447 -0.023)" fill="#26c6da"/>
    <g id="Group_287" data-name="Group 287" transform="translate(0 21.482)">
      <path id="Path_475" data-name="Path 475" d="M335.948,28.389a4.36,4.36,0,0,0-6.636-5.616l-113.7,119.918,32.813,11.336Z" transform="translate(-127.479 -21.482)" fill="#249fae"/>
      <path id="Path_476" data-name="Path 476" d="M10.654,398.888A4.361,4.361,0,0,1,7.7,397.737q-3.261-3-6.418-6.165A4.362,4.362,0,0,1,7.445,385.4q3.034,3.034,6.165,5.921a4.36,4.36,0,0,1-2.956,7.569Z" transform="translate(0 -235.892)" fill="#26c6da"/>
      <path id="Path_477" data-name="Path 477" d="M102.826,455.509a62.748,62.748,0,0,1-12.5-1.3,4.36,4.36,0,1,1,1.407-8.606c.113.018.226.042.337.069a54.091,54.091,0,0,0,10.787,1.116h1.988a4.133,4.133,0,0,1,4.526,4.194,4.36,4.36,0,0,1-4.194,4.517H102.9Zm-31.244-8.345a4.359,4.359,0,0,1-2.006-.488,113.862,113.862,0,0,1-12.391-7.526,4.36,4.36,0,0,1,4.97-7.159,103.44,103.44,0,0,0,11.423,6.976,4.36,4.36,0,0,1-2.006,8.232Z" transform="translate(-32.771 -263.78)" fill="#26c6da"/>
      <path id="Path_478" data-name="Path 478" d="M219.877,460.85a4.36,4.36,0,0,1-1.744-8.371,63.306,63.306,0,0,0,7.3-3.7,4.36,4.36,0,0,1,4.43,7.508,72.346,72.346,0,0,1-8.3,4.212A4.364,4.364,0,0,1,219.877,460.85Z" transform="translate(-127.403 -273.795)" fill="#26c6da"/>
    </g>
  </g>
</svg>
