<svg xmlns="http://www.w3.org/2000/svg" width="176" height="161.333" viewBox="0 0 176 161.333">
  <g id="filled_outline" data-name="filled outline" transform="translate(-16 -32)">
    <path id="Path_250" data-name="Path 250" d="M321.167,344.584A32.252,32.252,0,0,0,351.2,324.051H328.393l-10.16-5.867V306.451l10.16-5.867H351.2a32.256,32.256,0,0,0-57.057-5.867H272v35.2h22.143a32.219,32.219,0,0,0,27.024,14.667Z" transform="translate(-162.133 -157.118)" fill="#d9d9d9"/>
    <path id="Path_251" data-name="Path 251" d="M294.525,352H280v11.733h14.525a31.1,31.1,0,0,1,0-11.733Z" transform="translate(-167.2 -202.667)" fill="#cdcdcd"/>
    <path id="Path_252" data-name="Path 252" d="M359.691,351.508a2.932,2.932,0,0,1-.836-.123,23.473,23.473,0,0,1,0-44.986,2.933,2.933,0,1,1,1.673,5.62,17.61,17.61,0,0,0,0,33.745,2.933,2.933,0,0,1-.836,5.743Z" transform="translate(-206.526 -173.692)" fill="#cdcdcd"/>
    <path id="Path_253" data-name="Path 253" d="M418.409,353.6V341.867L408.248,336l-10.161,5.867V353.6l10.161,5.867Z" transform="translate(-241.988 -192.533)" fill="#b9b9b9"/>
    <path id="Path_254" data-name="Path 254" d="M398.087,349.075v3.388L415.476,362.5l2.933-1.693V357.42l-17.389-10.039Z" transform="translate(-241.988 -199.741)" fill="#cdcdcd"/>
    <path id="Path_255" data-name="Path 255" d="M244.533,332.8H224V282.315L226.933,280a17.6,17.6,0,0,1,17.6,17.6Z" transform="translate(-131.733 -157.067)" fill="#eaeae8"/>
    <path id="Path_256" data-name="Path 256" d="M44.533,370.4V344H24v38.133A5.867,5.867,0,0,0,29.867,388h79.2Z" transform="translate(-5.067 -197.6)" fill="#fec9a3"/>
    <path id="Path_257" data-name="Path 257" d="M44.533,302.833H24v-5.867a17.6,17.6,0,0,1,17.6-17.6L44.533,279Z" transform="translate(-5.067 -156.433)" fill="#eaeae8"/>
    <path id="Path_258" data-name="Path 258" d="M70.667,145.6H64.8a8.8,8.8,0,1,1,0-17.6h5.867Z" transform="translate(-25.333 -60.8)" fill="#f7bb8f"/>
    <path id="Path_259" data-name="Path 259" d="M208,145.6h5.867a8.8,8.8,0,0,0,0-17.6H208Z" transform="translate(-121.6 -60.8)" fill="#f7bb8f"/>
    <path id="Path_260" data-name="Path 260" d="M130.667,319.733V269.867L113.067,264H89.6L72,269.867v49.867Z" transform="translate(-35.467 -146.933)" fill="#26c6da"/>
    <path id="Path_261" data-name="Path 261" d="M176,376h5.867v5.867H176Z" transform="translate(-101.333 -217.867)" fill="#3981b7"/>
    <path id="Path_262" data-name="Path 262" d="M61.867,410.933V408L56,410.933l5.867,17.6H126.4a5.8,5.8,0,0,0,1.773-.3Z" transform="translate(-25.333 -238.133)" fill="#f7bb8f"/>
    <path id="Path_263" data-name="Path 263" d="M120,224v14.667l11.733,17.6,11.733-17.6V224Z" transform="translate(-65.867 -121.6)" fill="#fec9a3"/>
    <path id="Path_264" data-name="Path 264" d="M120,229.635a23.331,23.331,0,0,0,23.467,0V224H120Z" transform="translate(-65.867 -121.6)" fill="#f7bb8f"/>
    <path id="Path_265" data-name="Path 265" d="M111.467,153.867A23.467,23.467,0,0,1,88,130.4V104h46.933v26.4A23.467,23.467,0,0,1,111.467,153.867Z" transform="translate(-45.6 -45.6)" fill="#fec9a3"/>
    <circle id="Ellipse_13" data-name="Ellipse 13" cx="3" cy="3" r="3" transform="translate(51 75.333)" fill="#905638"/>
    <circle id="Ellipse_14" data-name="Ellipse 14" cx="3" cy="3" r="3" transform="translate(74 75.333)" fill="#905638"/>
    <path id="Path_266" data-name="Path 266" d="M144.8,158.537h-5.867a2.93,2.93,0,0,1-2.782-3.861l2.933-8.8a2.933,2.933,0,1,1,5.563,1.856L143,152.67h1.8a2.933,2.933,0,0,1,0,5.867Z" transform="translate(-76 -70.803)" fill="#905638"/>
    <path id="Path_267" data-name="Path 267" d="M134.933,63.467H88V51.733A11.733,11.733,0,0,1,99.733,40H123.2a11.733,11.733,0,0,1,11.733,11.733Z" transform="translate(-45.6 -5.067)" fill="#3981b7"/>
    <path id="Path_268" data-name="Path 268" d="M136.8,201.665a11.194,11.194,0,0,1-7.941-3.283,2.933,2.933,0,1,1,4.148-4.148,5.37,5.37,0,0,0,7.585,0,2.933,2.933,0,1,1,4.148,4.148,11.194,11.194,0,0,1-7.941,3.282Z" transform="translate(-70.933 -102.204)" fill="#905638"/>
    <g id="Group_193" data-name="Group 193" transform="translate(45.333 114.133)">
      <path id="Path_269" data-name="Path 269" d="M146.933,353.067A2.933,2.933,0,0,1,144,350.133v-35.2a2.933,2.933,0,1,1,5.867,0v35.2A2.933,2.933,0,0,1,146.933,353.067Z" transform="translate(-126.4 -291.467)" fill="#3981b7"/>
      <path id="Path_270" data-name="Path 270" d="M107.733,285.333l8.8-8.8L104.8,256,96,261.867Z" transform="translate(-96 -256)" fill="#3981b7"/>
      <path id="Path_271" data-name="Path 271" d="M160.8,285.333l-8.8-8.8L163.733,256l8.8,5.867Z" transform="translate(-131.467 -256)" fill="#3981b7"/>
    </g>
    <path id="Path_272" data-name="Path 272" d="M88,104h46.933v8.8H88Z" transform="translate(-45.6 -45.6)" fill="#f7bb8f"/>
    <path id="Path_273" data-name="Path 273" d="M88,104l2.241,4.482a23.731,23.731,0,0,0,42.452,0L134.933,104Z" transform="translate(-45.6 -45.6)" fill="#26c6da"/>
    <path id="Path_274" data-name="Path 274" d="M130.667,344v26.4h-35.2l-11.733-5.867L72,370.4,77.867,388H142.4a5.867,5.867,0,0,0,5.867-5.867V344Z" transform="translate(-35.467 -197.6)" fill="#fec9a3"/>
    <path id="Path_275" data-name="Path 275" d="M136.8,201.664a11.2,11.2,0,0,0,7.941-3.284,2.933,2.933,0,1,0-4.148-4.149,5.37,5.37,0,0,1-7.585,0,2.933,2.933,0,1,0-4.148,4.149A11.2,11.2,0,0,0,136.8,201.664Z" transform="translate(-70.933 -102.203)"/>
    <path id="Path_276" data-name="Path 276" d="M176,376h5.867v5.867H176Z" transform="translate(-101.333 -217.867)"/>
    <path id="Path_277" data-name="Path 277" d="M191.489,145.121a2.933,2.933,0,0,0,.309-2.722,35.157,35.157,0,0,0-59.892-9.6c-.5.6-.98,1.229-1.441,1.87H114.89a20.615,20.615,0,0,0-19.2-14.661L87.7,117.341l-7.168-4.777v-5.825A26.422,26.422,0,0,0,92.1,87.733h.167a11.733,11.733,0,1,0,0-23.467v-17.6A14.683,14.683,0,0,0,77.6,32H54.133A14.683,14.683,0,0,0,39.467,46.667v17.6a11.733,11.733,0,0,0,0,23.467h.167A26.422,26.422,0,0,0,51.2,106.739v5.825l-7.166,4.777-8.016,2.672A20.553,20.553,0,0,0,16,140.533v44a8.81,8.81,0,0,0,8.8,8.8h82.133a8.81,8.81,0,0,0,8.8-8.8v-8.8h14.731A35.167,35.167,0,0,0,191.8,168a2.933,2.933,0,0,0-2.732-4H177.419l.655-.378.01-.006.016-.009c.028-.016.054-.037.081-.055a2.751,2.751,0,0,0,.233-.156c.037-.027.067-.058.1-.087.064-.054.128-.106.188-.165.044-.044.083-.093.124-.139s.089-.1.13-.149a2.924,2.924,0,0,0,.223-.335,3.012,3.012,0,0,0,.147-.3c.013-.03.023-.06.035-.089q.049-.124.086-.251c.009-.03.017-.059.025-.089a2.917,2.917,0,0,0,.064-.319c0-.008,0-.015,0-.023a2.935,2.935,0,0,0,.024-.358V149.333a2.933,2.933,0,0,0-1.467-2.54l-.678-.393h11.648a2.933,2.933,0,0,0,2.423-1.279ZM92.267,70.133a5.867,5.867,0,0,1,0,11.733Zm-52.8,11.733a5.867,5.867,0,0,1,0-11.733Zm48.419,41.721,4.381,1.46v44.819H68.8V141.749l3.792,3.792a2.933,2.933,0,0,0,2.074.859,2.9,2.9,0,0,0,.47-.037,2.933,2.933,0,0,0,2.154-1.583Zm-22.019,5.167-8.8-15.4v-3.667a26.338,26.338,0,0,0,17.6,0v3.667ZM82.619,121l-8.755,17.512-4.338-4.338,9.062-15.86ZM45.333,46.667a8.81,8.81,0,0,1,8.8-8.8H77.6a8.81,8.81,0,0,1,8.8,8.8v8.8H45.333ZM84.587,61.333l-.118.236a20.8,20.8,0,0,1-37.2,0l-.118-.236ZM45.333,84.8V69.292a26.428,26.428,0,0,0,8.391,6.74,2.933,2.933,0,1,0,2.823,1.239,26.606,26.606,0,0,0,5.346,1.368L60.15,83.872a2.933,2.933,0,0,0,2.783,3.861H68.8a2.933,2.933,0,0,0,0-5.867H67l1.007-3.021a26.671,26.671,0,0,0,7.175-1.577,2.933,2.933,0,1,0,2.823-1.239A26.427,26.427,0,0,0,86.4,69.292V84.8a20.543,20.543,0,0,1-10.461,17.883,2.962,2.962,0,0,0-.39.22,20.489,20.489,0,0,1-19.364,0,2.959,2.959,0,0,0-.39-.22A20.543,20.543,0,0,1,45.333,84.8Zm7.813,33.517,9.062,15.86-4.338,4.34-8.755-17.511ZM21.867,140.533A14.692,14.692,0,0,1,33.6,126.162v17.3H21.867ZM24.8,187.467a2.937,2.937,0,0,1-2.933-2.933v-35.2H33.6V172.8c0,.017,0,.033,0,.05,0,.063,0,.127.01.19,0,.034.006.069.01.1.006.055.015.11.025.165s.014.081.023.122.022.089.034.134.025.095.04.142c0,.007,0,.014.006.022l4.58,13.739ZM39.467,146.4V125.048l4.381-1.46,10.6,21.191a2.933,2.933,0,0,0,2.154,1.583,2.9,2.9,0,0,0,.469.038,2.933,2.933,0,0,0,2.074-.859l3.792-3.792v28.118H60.693L49.579,164.31a2.933,2.933,0,0,0-2.624,0l-7.488,3.744Zm70.4,14.667v23.467a2.937,2.937,0,0,1-2.933,2.933H44.514L40.12,174.286l8.146-4.073,10.421,5.211a2.931,2.931,0,0,0,1.312.31H95.2a2.933,2.933,0,0,0,2.933-2.933V149.333h11.733Zm0-17.6H98.133V126.158a14.718,14.718,0,0,1,11.733,14.376Zm5.867,8.8h8.231c-.087.987-.131,1.961-.131,2.933s.043,1.946.131,2.933h-8.231Zm50.739-11.733c-.017,0-.033,0-.05,0a2.456,2.456,0,0,0-.28.018l-.089.011a2.946,2.946,0,0,0-.668.179c-.028.011-.056.024-.084.037-.085.037-.167.077-.249.122-.015.008-.032.014-.047.023l-10.161,5.867-.021.014a2.96,2.96,0,0,0-.3.2l-.016.013a2.941,2.941,0,0,0-.247.217l-.063.064q-.092.1-.176.2c-.019.025-.04.048-.059.073a2.923,2.923,0,0,0-.183.278l-.015.026a2.912,2.912,0,0,0-.147.3c-.013.03-.023.06-.037.089q-.048.124-.085.251c-.009.03-.017.059-.025.089a2.992,2.992,0,0,0-.064.318.188.188,0,0,1,0,.023,2.867,2.867,0,0,0-.023.358v11.759a2.933,2.933,0,0,0,1.467,2.541l10.161,5.867.009,0c.068.039.14.07.21.1.045.021.088.046.134.065.066.027.136.047.2.069.053.017.1.037.158.052.073.02.151.032.227.045.048.009.1.022.145.029a2.96,2.96,0,0,0,.383.025h17.944a29.3,29.3,0,0,1-49.953,1.33,2.933,2.933,0,0,0-2.457-1.33H115.733V164h11.592a2.933,2.933,0,0,0,2.885-3.464,28.165,28.165,0,0,1,0-10.67,2.933,2.933,0,0,0-2.885-3.466H115.733v-5.867H132.01a2.933,2.933,0,0,0,2.457-1.33,29.612,29.612,0,0,1,1.963-2.669,29.293,29.293,0,0,1,47.989,4Zm-4.295,8.8,4.295-2.48,7.228,4.173v4.959Zm8.59,11.733-4.295,2.48-7.228-4.173v-4.959Z" transform="translate(0 0)"/>
    <path id="Path_278" data-name="Path 278" d="M358.853,306.44a23.475,23.475,0,0,0,0,44.99,2.933,2.933,0,0,0,1.673-5.623,17.608,17.608,0,0,1,0-33.743,2.933,2.933,0,1,0-1.673-5.623Z" transform="translate(-206.523 -173.735)"/>
  </g>
</svg>
