<svg xmlns="http://www.w3.org/2000/svg" width="58.285" height="58.291" viewBox="0 0 58.285 58.291">
  <path id="home_8_" data-name="home (8)" d="M56.719,25.353l0,0L32.937,1.572a5.365,5.365,0,0,0-7.589,0L1.582,25.337l-.024.024A5.364,5.364,0,0,0,5.129,34.5q.082.008.165.008h.948v17.5a6.287,6.287,0,0,0,6.281,6.28h9.3a1.708,1.708,0,0,0,1.708-1.708V42.864A2.868,2.868,0,0,1,26.4,40h5.487a2.868,2.868,0,0,1,2.865,2.865V56.583a1.708,1.708,0,0,0,1.708,1.708h9.3a6.287,6.287,0,0,0,6.281-6.28v-17.5h.879a5.367,5.367,0,0,0,3.8-9.159Zm0,0" transform="translate(0 0.001)" fill="#26c6da"/>
</svg>
