<svg xmlns="http://www.w3.org/2000/svg" width="56.036" height="56.042" viewBox="0 0 56.036 56.042">
  <path id="home_7_" data-name="home (7)" d="M55.031,24.375l0,0L32.166,1.511a5.159,5.159,0,0,0-7.3,0L2.021,24.359,2,24.383a5.157,5.157,0,0,0,3.433,8.79c.053.005.106.008.159.008H6.5V50a6.045,6.045,0,0,0,6.039,6.038h8.944A1.642,1.642,0,0,0,23.125,54.4V41.21a2.758,2.758,0,0,1,2.755-2.755h5.275a2.758,2.758,0,0,1,2.755,2.755V54.4a1.642,1.642,0,0,0,1.642,1.642H44.5A6.045,6.045,0,0,0,50.535,50V33.18h.845a5.16,5.16,0,0,0,3.651-8.805Zm-2.325,4.972a1.864,1.864,0,0,1-1.326.55H48.893a1.642,1.642,0,0,0-1.642,1.642V50A2.758,2.758,0,0,1,44.5,52.758h-7.3V41.21a6.045,6.045,0,0,0-6.039-6.039H25.881a6.046,6.046,0,0,0-6.039,6.039V52.758h-7.3A2.758,2.758,0,0,1,9.785,50V31.538A1.642,1.642,0,0,0,8.143,29.9H5.7l-.077,0a1.873,1.873,0,0,1-1.292-3.2h0L27.192,3.832a1.875,1.875,0,0,1,2.652,0L52.7,26.687l.011.01a1.88,1.88,0,0,1,0,2.65Zm0,0" transform="translate(-0.5 0.001)" fill="#707070"/>
</svg>
