<svg id="search_1_" data-name="search (1)" xmlns="http://www.w3.org/2000/svg" width="63.47" height="63.47" viewBox="0 0 63.47 63.47">
  <g id="Group_2" data-name="Group 2" transform="translate(9.543 13.757)">
    <g id="Group_1" data-name="Group 1">
      <path id="Path_1" data-name="Path 1" d="M84.96,111.663a2.344,2.344,0,0,0-3.316,0,16.026,16.026,0,0,0-4.584,12.99,2.345,2.345,0,0,0,2.331,2.112c.078,0,.157,0,.235-.012a2.346,2.346,0,0,0,2.1-2.567,11.353,11.353,0,0,1,3.233-9.208A2.344,2.344,0,0,0,84.96,111.663Z" transform="translate(-76.978 -110.975)" fill="#fff"/>
    </g>
  </g>
  <g id="Group_4" data-name="Group 4">
    <g id="Group_3" data-name="Group 3">
      <path id="Path_2" data-name="Path 2" d="M26.811,0A26.811,26.811,0,1,0,53.621,26.811,26.841,26.841,0,0,0,26.811,0Zm0,48.931A22.121,22.121,0,1,1,48.931,26.811,22.145,22.145,0,0,1,26.811,48.931Z" fill="#fff"/>
    </g>
  </g>
  <g id="Group_6" data-name="Group 6" transform="translate(41.74 41.74)">
    <g id="Group_5" data-name="Group 5">
      <path id="Path_3" data-name="Path 3" d="M357.751,354.436l-17.04-17.04a2.345,2.345,0,1,0-3.316,3.316l17.04,17.04a2.345,2.345,0,0,0,3.316-3.316Z" transform="translate(-336.708 -336.709)" fill="#fff"/>
    </g>
  </g>
</svg>
