<svg id="SvgjsSvg1019" width="288" height="288" xmlns="http://www.w3.org/2000/svg" version="1.1" xmlns:xlink="http://www.w3.org/1999/xlink" xmlns:svgjs="http://svgjs.com/svgjs"><defs id="SvgjsDefs1020"></defs><g id="SvgjsG1021"><svg xmlns="http://www.w3.org/2000/svg" width="288" height="288" data-name="search (1)" viewBox="0 0 63.47 63.47"><g data-name="Group 2" fill="#364f6b" class="color000 svgShape"><g data-name="Group 1" transform="translate(9.543 13.757)" fill="#364f6b" class="color000 svgShape"><path fill="#ff8066" d="M84.96,111.663a2.344,2.344,0,0,0-3.316,0,16.026,16.026,0,0,0-4.584,12.99,2.345,2.345,0,0,0,2.331,2.112c.078,0,.157,0,.235-.012a2.346,2.346,0,0,0,2.1-2.567,11.353,11.353,0,0,1,3.233-9.208A2.344,2.344,0,0,0,84.96,111.663Z" data-name="Path 1" transform="translate(-76.978 -110.975)" class="colorfff svgShape"></path></g></g><g data-name="Group 4" fill="#364f6b" class="color000 svgShape"><g data-name="Group 3" fill="#364f6b" class="color000 svgShape"><path fill="#ff8066" d="M26.811,0A26.811,26.811,0,1,0,53.621,26.811,26.841,26.841,0,0,0,26.811,0Zm0,48.931A22.121,22.121,0,1,1,48.931,26.811,22.145,22.145,0,0,1,26.811,48.931Z" data-name="Path 2" class="colorfff svgShape"></path></g></g><g data-name="Group 6" fill="#364f6b" class="color000 svgShape"><g data-name="Group 5" transform="translate(41.74 41.74)" fill="#364f6b" class="color000 svgShape"><path fill="#ff8066" d="M357.751,354.436l-17.04-17.04a2.345,2.345,0,1,0-3.316,3.316l17.04,17.04a2.345,2.345,0,0,0,3.316-3.316Z" data-name="Path 3" transform="translate(-336.708 -336.709)" class="colorfff svgShape"></path></g></g></svg></g></svg>