<svg xmlns="http://www.w3.org/2000/svg" width="48.366" height="61.001" viewBox="0 0 48.366 61.001">
  <g id="shopping-bag_5_" data-name="shopping-bag (5)" transform="translate(-53.023)">
    <g id="Group_198" data-name="Group 198" transform="translate(53.023 12.034)">
      <g id="Group_197" data-name="Group 197" transform="translate(0)">
        <path id="Path_300" data-name="Path 300" d="M101.361,139.274l-2.724-34.326A4.289,4.289,0,0,0,94.379,101H89v7.973a1.787,1.787,0,0,1-3.573,0V101H68.989v7.973a1.787,1.787,0,0,1-3.573,0V101H60.035a4.289,4.289,0,0,0-4.258,3.939l-2.725,34.336a9.933,9.933,0,0,0,9.9,10.693h28.5a9.932,9.932,0,0,0,9.9-10.7Zm-16.1-17.48-9.24,9.24a1.786,1.786,0,0,1-2.527,0l-4.33-4.33a1.786,1.786,0,1,1,2.526-2.526l3.068,3.067,7.977-7.977a1.787,1.787,0,1,1,2.526,2.527Z" transform="translate(-53.023 -101.005)" fill="#26c6da"/>
      </g>
    </g>
    <g id="Group_200" data-name="Group 200" transform="translate(65.416)">
      <g id="Group_199" data-name="Group 199">
        <path id="Path_301" data-name="Path 301" d="M168.83,0a11.805,11.805,0,0,0-11.791,11.792v.242h3.573v-.242a8.218,8.218,0,1,1,16.436,0v.242h3.573v-.242A11.805,11.805,0,0,0,168.83,0Z" transform="translate(-157.039)" fill="#26c6da"/>
      </g>
    </g>
  </g>
</svg>
