<svg id="user_5_" data-name="user (5)" xmlns="http://www.w3.org/2000/svg" width="61.76" height="61.76" viewBox="0 0 61.76 61.76">
  <g id="Group_259" data-name="Group 259">
    <path id="Path_372" data-name="Path 372" d="M30.88,0a30.863,30.863,0,0,0-23.8,50.528c.011.015.012.035.025.049a30.872,30.872,0,0,0,11.66,8.7l.153.067c.361.152.727.293,1.093.431.144.055.288.11.434.163q.474.17.954.323c.2.066.41.131.617.192q.425.127.853.243c.251.068.5.131.758.191s.514.124.772.178c.288.062.58.116.872.17.235.043.468.089.705.127.324.052.651.094.978.136.211.027.421.058.633.08.371.039.744.067,1.119.093.174.012.347.031.522.04q.82.046,1.656.047c.557,0,1.11-.016,1.658-.045.175-.009.348-.028.522-.04.375-.027.748-.054,1.119-.093.212-.023.422-.054.633-.08.327-.042.654-.083.978-.136.236-.038.47-.083.705-.127.291-.054.583-.108.872-.17.258-.056.515-.116.772-.178s.506-.125.758-.191c.286-.076.57-.159.853-.243.207-.062.412-.127.617-.192q.48-.154.954-.323c.145-.052.289-.108.434-.163.367-.138.732-.28,1.093-.431L43,59.28a30.88,30.88,0,0,0,11.66-8.7c.012-.014.013-.035.025-.049A30.867,30.867,0,0,0,30.88,0ZM43.394,56.84l-.045.023c-.367.177-.741.344-1.118.506l-.255.109q-.494.207-1,.394c-.14.052-.28.1-.421.153-.3.106-.6.208-.9.3-.187.06-.376.116-.564.172-.268.08-.536.157-.808.23-.229.061-.459.116-.69.171s-.483.116-.727.168c-.267.057-.535.1-.8.153-.217.04-.433.082-.653.117-.3.047-.606.085-.91.124-.192.025-.384.054-.578.074-.347.037-.7.061-1.046.085-.155.01-.31.028-.467.036q-.764.04-1.533.041t-1.532-.041c-.156-.008-.311-.025-.467-.036-.35-.024-.7-.048-1.046-.085-.195-.021-.386-.049-.578-.074-.3-.038-.608-.076-.91-.124-.219-.035-.435-.077-.653-.117-.269-.048-.537-.1-.8-.153-.244-.051-.486-.11-.727-.168s-.461-.11-.69-.171c-.271-.072-.54-.15-.808-.23-.188-.056-.377-.112-.564-.172q-.452-.145-.9-.3l-.421-.153q-.5-.188-1-.394c-.085-.035-.169-.072-.254-.108-.377-.162-.75-.329-1.119-.506l-.045-.023a28.961,28.961,0,0,1-9.338-7.2A22.719,22.719,0,0,1,23.9,34.059c.143.087.292.166.44.248.086.048.172.1.259.146.307.163.618.315.936.452.244.107.5.2.747.29l.148.055a13.137,13.137,0,0,0,8.9,0l.148-.055c.251-.093.5-.183.747-.29.318-.137.629-.289.936-.452.087-.047.173-.1.259-.146.147-.082.3-.161.442-.249A22.725,22.725,0,0,1,52.732,49.641,28.99,28.99,0,0,1,43.394,56.84ZM19.557,22.645A11.323,11.323,0,1,1,37.04,32.133a10.9,10.9,0,0,1-1.261.705c-.051.025-.1.05-.153.074a11.582,11.582,0,0,1-9.49,0c-.051-.024-.1-.049-.153-.074a10.819,10.819,0,0,1-1.261-.705A11.315,11.315,0,0,1,19.557,22.645ZM54.276,47.682a24.8,24.8,0,0,0-14.459-15.1,13.382,13.382,0,1,0-17.872,0,24.8,24.8,0,0,0-14.459,15.1A28.814,28.814,0,1,1,59.7,30.88,28.658,28.658,0,0,1,54.276,47.682Z" fill="#26c6da"/>
  </g>
</svg>
